HIERARCHY
ROOT Hips
{
	OFFSET -0.001795 -0.223333 0.028219
	CHANNELS 6 Xposition Yposition Zposition Zrotation Yrotation Xrotation 
	JOINT LeftUpLeg
	{
		OFFSET 0.069520 -0.091406 -0.006815
		CHANNELS 3 Zrotation Yrotation Xrotation
		JOINT LeftLeg
		{
			OFFSET 0.034277 -0.375199 -0.004496
			CHANNELS 3 Zrotation Yrotation Xrotation
			JOINT LeftFoot
			{
				OFFSET -0.013596 -0.397961 -0.043693
				CHANNELS 3 Zrotation Yrotation Xrotation
				JOINT LeftToe
				{
					OFFSET 0.026358 -0.055791 0.119288
					CHANNELS 3 Zrotation Yrotation Xrotation
					End Site
					{
						OFFSET 0.000000 0.000000 0.000000
					}
				}
			}
		}
	}
	JOINT RightUpLeg
	{
		OFFSET -0.067670 -0.090522 -0.004320
		CHANNELS 3 Zrotation Yrotation Xrotation
		JOINT RightLeg
		{
			OFFSET -0.038290 -0.382569 -0.008850
			CHANNELS 3 Zrotation Yrotation Xrotation
			JOINT RightFoot
			{
				OFFSET 0.015774 -0.398415 -0.042312
				CHANNELS 3 Zrotation Yrotation Xrotation
				JOINT RightToe
				{
					OFFSET -0.025372 -0.048144 0.123348
					CHANNELS 3 Zrotation Yrotation Xrotation
					End Site
					{
						OFFSET 0.000000 0.000000 0.000000
					}
				}
			}
		}
	}
	JOINT Spine
	{
		OFFSET -0.002533 0.108963 -0.026696
		CHANNELS 3 Zrotation Yrotation Xrotation
		JOINT Spine1
		{
			OFFSET 0.005487 0.135180 0.001092
			CHANNELS 3 Zrotation Yrotation Xrotation
			JOINT Spine2
			{
				OFFSET 0.001457 0.052922 0.025425
				CHANNELS 3 Zrotation Yrotation Xrotation
				JOINT Neck
				{
					OFFSET -0.002778 0.213870 -0.042857
					CHANNELS 3 Zrotation Yrotation Xrotation
					JOINT Head
					{
						OFFSET 0.005152 0.064970 0.051349
						CHANNELS 3 Zrotation Yrotation Xrotation
						End Site
						{
							OFFSET 0.000000 0.000000 0.000000
						}
					}
				}
				JOINT LeftShoulder
				{
					OFFSET 0.078845 0.121749 -0.034090
					CHANNELS 3 Zrotation Yrotation Xrotation
					JOINT LeftArm
					{
						OFFSET 0.090977 0.030469 -0.008868
						CHANNELS 3 Zrotation Yrotation Xrotation
						JOINT LeftForeArm
						{
							OFFSET 0.259612 -0.012772 -0.027456
							CHANNELS 3 Zrotation Yrotation Xrotation
							JOINT LeftHand
							{
								OFFSET 0.249234 0.008986 -0.001171
								CHANNELS 3 Zrotation Yrotation Xrotation
								End Site
								{
									OFFSET 0.000000 0.000000 0.000000
								}
							}
						}
					}
				}
				JOINT RightShoulder
				{
					OFFSET -0.081759 0.118833 -0.038615
					CHANNELS 3 Zrotation Yrotation Xrotation
					JOINT RightArm
					{
						OFFSET -0.096012 0.032551 -0.009143
						CHANNELS 3 Zrotation Yrotation Xrotation
						JOINT RightForeArm
						{
							OFFSET -0.253742 -0.013329 -0.021401
							CHANNELS 3 Zrotation Yrotation Xrotation
							JOINT RightHand
							{
								OFFSET -0.255298 0.007772 -0.005559
								CHANNELS 3 Zrotation Yrotation Xrotation
								End Site
								{
									OFFSET 0.000000 0.000000 0.000000
								}
							}
						}
					}
				}
			}
		}
	}
}
MOTION
Frames: 9
Frame Time: 0.050000
0.043807 0.947918 0.072063 0.599940 10.272733 4.663704 2.150433 -0.695504 -8.327297 1.071449 -0.465317 6.780641 -0.324150 3.279540 7.240648 0.000000 0.000000 0.000000 -4.403137 0.536119 -8.278630 -3.659322 0.494792 0.837101 2.934328 0.730618 16.493119 0.000000 0.000000 0.000000 7.109709 -0.263940 0.480843 -1.002819 0.461827 -0.162207 -5.789821 12.109716 10.051807 18.820863 -13.106560 -7.022021 0.000000 0.000000 0.000000 -7.677071 -13.200997 2.403592 -31.266741 -9.655363 -0.822718 -31.913673 -45.221260 11.744012 0.000000 0.000000 0.000000 2.526601 7.777814 3.736162 24.130463 20.611829 0.529839 1.931985 49.254229 5.373624 0.000000 0.000000 0.000000 
0.043586 0.947833 0.071930 0.441947 10.339335 4.584945 2.255462 -0.716636 -8.622337 1.209404 -0.524054 7.364134 -0.299270 3.282274 7.139507 0.000000 0.000000 0.000000 -4.157677 0.550610 -8.271122 -3.762288 0.513965 0.925434 2.899402 0.685640 16.484545 0.000000 0.000000 0.000000 7.091558 -0.261201 0.472921 -0.461773 0.191963 0.128919 -5.930414 11.449816 9.981595 18.878339 -13.221603 -6.929172 0.000000 0.000000 0.000000 -7.594176 -13.816536 2.751227 -29.985734 -12.089452 -0.312536 -28.322223 -47.654631 11.084224 0.000000 0.000000 0.000000 3.034953 7.597210 3.726248 24.624667 20.167781 0.459706 1.856733 50.435520 5.484250 0.000000 0.000000 0.000000 
0.043186 0.947981 0.071624 0.412426 10.176676 4.521028 2.224729 -0.725177 -8.724596 1.326191 -0.560897 7.655145 -0.221594 3.434123 7.192567 0.000000 0.000000 0.000000 -4.011278 0.568948 -8.410544 -3.930590 0.551654 1.184992 2.973697 0.789931 16.482741 0.000000 0.000000 0.000000 7.238177 -0.275077 0.571298 -0.075526 -0.008080 0.423132 -6.138736 10.838126 9.756321 18.673327 -13.171990 -6.671999 0.000000 0.000000 0.000000 -7.253004 -14.481204 3.158394 -28.885293 -14.704169 0.170276 -23.178934 -49.740249 9.450574 0.000000 0.000000 0.000000 3.196823 7.651750 3.742212 26.419706 19.745884 0.535525 0.205122 52.499845 5.041974 0.000000 0.000000 0.000000 
0.042801 0.947921 0.071052 0.318571 9.932287 4.482829 2.417210 -0.738528 -8.981149 1.156829 -0.563675 8.138707 -0.081515 3.658932 7.184146 0.000000 0.000000 0.000000 -3.865651 0.593143 -8.620562 -3.987034 0.574603 1.438278 3.084317 0.950536 16.457467 0.000000 0.000000 0.000000 7.191889 -0.271132 0.565207 0.402018 -0.274441 1.003327 -6.069376 10.277437 9.495113 18.313844 -12.969668 -6.450772 0.000000 0.000000 0.000000 -6.928696 -15.000997 3.505645 -27.607392 -17.271449 0.576080 -16.286252 -52.150420 6.809589 0.000000 0.000000 0.000000 3.769671 7.704066 3.827148 27.522269 20.201497 0.726799 -1.979743 53.357467 4.030440 0.000000 0.000000 0.000000 
0.042607 0.947901 0.069883 0.195365 9.412920 4.355251 2.472121 -0.728884 -8.923805 1.213238 -0.576867 8.254464 0.167319 4.065700 7.194921 0.000000 0.000000 0.000000 -3.847520 0.604589 -8.707225 -3.803096 0.550869 1.470079 3.360897 1.320900 16.530729 0.000000 0.000000 0.000000 7.327282 -0.299064 0.829999 0.737191 -0.449965 1.236188 -6.008954 10.071608 9.310618 18.169978 -13.158046 -5.763364 0.000000 0.000000 0.000000 -5.952961 -15.908728 4.043880 -26.443044 -19.372591 0.826120 -8.604020 -53.432164 3.269549 0.000000 0.000000 0.000000 4.382113 8.011048 4.046964 28.839793 20.702292 0.939763 -5.394597 54.332166 2.438700 0.000000 0.000000 0.000000 
0.042808 0.948130 0.067932 0.178443 8.920443 4.563008 2.468882 -0.752332 -9.233522 1.126393 -0.561722 8.301913 0.376096 4.472887 7.365092 0.000000 0.000000 0.000000 -3.839558 0.639070 -9.174209 -3.874014 0.558406 1.488854 3.628303 1.629206 16.753803 0.000000 0.000000 0.000000 7.284206 -0.287971 0.709785 1.065309 -0.623888 1.465034 -5.692271 9.748677 9.446330 17.775185 -12.551632 -6.407705 0.000000 0.000000 0.000000 -4.896422 -16.279754 4.385154 -25.113430 -20.936067 0.908102 -2.714033 -54.989728 0.423422 0.000000 0.000000 0.000000 4.610866 8.642754 4.316457 29.836030 21.602831 1.265236 -9.122455 54.683314 0.529056 0.000000 0.000000 0.000000 
0.043475 0.948413 0.065177 0.187664 8.461631 4.563764 2.394275 -0.768031 -9.421752 1.048705 -0.554258 8.447790 0.564690 4.839049 7.529189 0.000000 0.000000 0.000000 -4.049696 0.638894 -9.332950 -3.663553 0.516559 1.293437 3.918512 1.939895 17.070035 0.000000 0.000000 0.000000 7.304737 -0.300542 0.839570 1.364652 -0.806629 1.988302 -5.339959 9.721808 9.297944 17.507610 -12.124737 -6.881007 0.000000 0.000000 0.000000 -3.098152 -16.921705 4.834145 -24.313010 -22.247459 0.956200 2.836474 -55.527920 -2.491488 0.000000 0.000000 0.000000 4.623969 9.677438 4.743586 30.727737 22.181110 1.540112 -13.136085 54.073231 -1.511933 0.000000 0.000000 0.000000 
0.044501 0.949006 0.061929 0.335945 7.998083 4.691159 2.056733 -0.802926 -9.691474 1.122692 -0.564674 8.470713 0.722186 5.209716 7.845909 0.000000 0.000000 0.000000 -4.462405 0.629968 -9.577150 -3.410753 0.462629 0.986319 4.234309 2.233313 17.532182 0.000000 0.000000 0.000000 7.199266 -0.328939 1.146775 1.728131 -0.973777 1.868997 -4.876535 9.621056 9.677876 17.322222 -11.833923 -7.279950 0.000000 0.000000 0.000000 -2.066941 -17.638402 5.211731 -22.848132 -22.729403 0.825303 6.204238 -56.406305 -4.287742 0.000000 0.000000 0.000000 4.185319 10.718834 5.073572 31.388871 23.148819 1.897237 -16.001908 53.059564 -2.927640 0.000000 0.000000 0.000000 
0.045714 0.949623 0.058733 0.471354 7.584450 5.007501 1.867737 -0.855129 -10.213443 0.961128 -0.538357 8.551716 0.861051 5.553964 8.188109 0.000000 0.000000 0.000000 -4.810093 0.633954 -9.979800 -3.271096 0.419263 0.611585 4.524672 2.460865 18.056508 0.000000 0.000000 0.000000 7.153383 -0.341226 1.226473 1.852964 -1.079547 2.478274 -4.559108 9.749410 9.126626 17.210170 -11.489998 -7.828365 0.000000 0.000000 0.000000 -0.997751 -18.071611 5.447141 -21.739274 -23.002945 0.744918 7.633316 -57.498885 -5.196231 0.000000 0.000000 0.000000 3.919155 11.587677 5.380212 31.554848 23.662044 2.129773 -17.065582 51.391235 -3.420414 0.000000 0.000000 0.000000 
